HIERARCHY
ROOT joint_Root
{
	OFFSET 0.0 0.0 0.0
	CHANNELS 6 Xposition Yposition Zposition Zrotation Xrotation Yrotation 
	JOINT Hips
	{
		OFFSET -0.726466 93.3139 -2.00062
		CHANNELS 6 Xposition Yposition Zposition Zrotation Xrotation Yrotation 
		JOINT Spine
		{
			OFFSET 15.7357 0.0 0.0
			CHANNELS 6 Xposition Yposition Zposition Zrotation Xrotation Yrotation 
			JOINT Chest
			{
				OFFSET 8.98455 -0.406207 0.0
				CHANNELS 6 Xposition Yposition Zposition Zrotation Xrotation Yrotation 
				JOINT Neck
				{
					OFFSET 16.3773 0.0 0.0
					CHANNELS 6 Xposition Yposition Zposition Zrotation Xrotation Yrotation 
					JOINT Head
					{
						OFFSET 6.45672 0.0 0.0
						CHANNELS 6 Xposition Yposition Zposition Zrotation Xrotation Yrotation 
						End Site
						{
							OFFSET 0.0 0.0 0.0
						}
					}
				}
				JOINT Shoulder_L
				{
					OFFSET 12.9942 -0.242716 4.98039
					CHANNELS 6 Xposition Yposition Zposition Zrotation Xrotation Yrotation 
					JOINT UpperArm_L
					{
						OFFSET 5.34809 0.0 0.0
						CHANNELS 6 Xposition Yposition Zposition Zrotation Xrotation Yrotation 
						JOINT LowerArm_L
						{
							OFFSET 24.3286 1.87007e-05 0.0
							CHANNELS 6 Xposition Yposition Zposition Zrotation Xrotation Yrotation 
							JOINT Hand_L
							{
								OFFSET 22.2916 0.0 0.0
								CHANNELS 6 Xposition Yposition Zposition Zrotation Xrotation Yrotation 
								End Site
								{
									OFFSET 0.0 0.0 0.0
								}
							}
						}
					}
				}
				JOINT Shoulder_R
				{
					OFFSET 12.9945 -0.242716 -4.98039
					CHANNELS 6 Xposition Yposition Zposition Zrotation Xrotation Yrotation 
					JOINT UpperArm_R
					{
						OFFSET -5.34813 0.0 0.0
						CHANNELS 6 Xposition Yposition Zposition Zrotation Xrotation Yrotation 
						JOINT LowerArm_R
						{
							OFFSET -24.3289 0.000322201 0.0
							CHANNELS 6 Xposition Yposition Zposition Zrotation Xrotation Yrotation 
							JOINT Hand_R
							{
								OFFSET -22.2915 -0.000108084 0.0
								CHANNELS 6 Xposition Yposition Zposition Zrotation Xrotation Yrotation 
								End Site
								{
									OFFSET 0.0 0.0 0.0
								}
							}
						}
					}
				}
			}
		}
		JOINT UpperLeg_L
		{
			OFFSET -2.19248 -6.46944 0.0
			CHANNELS 6 Xposition Yposition Zposition Zrotation Xrotation Yrotation 
			JOINT LowerLeg_L
			{
				OFFSET 39.0811 0.0 -1.23785e-05
				CHANNELS 6 Xposition Yposition Zposition Zrotation Xrotation Yrotation 
				JOINT Foot_L
				{
					OFFSET 40.9854 0.0 -1.26872e-05
					CHANNELS 6 Xposition Yposition Zposition Zrotation Xrotation Yrotation 
					JOINT Toes_L
					{
						OFFSET 11.7543 0.0 0.0
						CHANNELS 6 Xposition Yposition Zposition Zrotation Xrotation Yrotation 
						End Site
						{
							OFFSET 0.0 0.0 0.0
						}
					}
				}
			}
		}
		JOINT UpperLeg_R
		{
			OFFSET -2.19251 6.46944 0.0
			CHANNELS 6 Xposition Yposition Zposition Zrotation Xrotation Yrotation 
			JOINT LowerLeg_R
			{
				OFFSET -39.0811 -0.00228153 -0.0401928
				CHANNELS 6 Xposition Yposition Zposition Zrotation Xrotation Yrotation 
				JOINT Foot_R
				{
					OFFSET -40.9854 0.0 0.0
					CHANNELS 6 Xposition Yposition Zposition Zrotation Xrotation Yrotation 
					JOINT Toes_R
					{
						OFFSET -11.7543 0.0 0.0
						CHANNELS 6 Xposition Yposition Zposition Zrotation Xrotation Yrotation 
						End Site
						{
							OFFSET 0.0 0.0 0.0
						}
					}
				}
			}
		}
	}
}
MOTION
Frames:	4
Frame Time:	0.0333333
0.000000 0.000000 0.000000 0.000000 0.000000 -0.000000 -1.009020 92.469700 -1.287580 87.816500 -0.987911 3.914500 15.735700 0.000005 -0.000001 87.995700 86.310800 -88.311500 8.984550 -0.406207 -0.000000 -0.392725 -0.235519 -0.632032 16.377300 -0.000001 -0.000001 2.951420 -2.204820 1.958390 6.456720 -0.000001 -0.000000 4.738990 -2.761890 -3.705100 12.994200 -0.242716 4.980390 -89.561200 -1.311060 -71.491000 5.348090 -0.000007 -0.000001 -70.638400 36.093700 -10.634800 24.328600 0.000019 0.000005 1.718850 4.300170 -21.811300 22.291600 -0.000001 0.000005 5.913390 5.474010 -5.520650 12.994500 -0.242716 -4.980390 90.488600 -1.314410 -69.606300 -5.348130 -0.000001 -0.000004 -78.612300 -33.636100 -102.378000 -24.328900 0.000322 -0.000009 17.653900 0.380953 -88.804200 -22.291500 -0.000108 -0.000004 22.907500 5.284480 0.503155 -2.192480 -6.469440 -0.000000 -174.864000 -7.520000 -2.810230 39.081100 -0.000007 -0.000012 -0.106098 0.260941 22.126600 40.985400 -0.000006 -0.000013 -0.297140 4.625230 -65.536900 11.754300 -0.000000 0.000003 -0.000042 -0.000490 -16.596600 -2.192510 6.469440 -0.000001 -179.268000 14.058500 179.747000 -39.081100 -0.002282 -0.040193 -0.008516 0.035350 18.516800 -40.985400 0.000008 0.000006 4.836180 7.671090 -65.132600 -11.754300 -0.000006 -0.000006 -0.009084 -0.096657 -20.510200
0.000000 0.000000 0.000000 0.000000 0.000000 -0.000000 -1.007630 92.470800 -1.265650 87.813600 -0.870687 3.885970 15.735700 0.000005 -0.000001 87.701700 86.303600 -88.014100 8.984550 -0.406207 -0.000000 -0.379911 -0.274202 -0.625257 16.377300 -0.000001 -0.000001 2.991340 -2.269480 1.998310 6.456720 -0.000001 -0.000000 4.671940 -2.827930 -3.710200 12.994200 -0.242716 4.980390 -89.565800 -1.296780 -71.484100 5.348090 -0.000007 -0.000001 -70.750000 36.103700 -10.505900 24.328600 0.000019 0.000005 1.814070 4.532990 -21.837600 22.291600 -0.000001 0.000005 5.956760 5.476700 -5.622690 12.994500 -0.242716 -4.980390 90.480200 -1.289300 -69.568800 -5.348130 -0.000001 -0.000004 -78.703800 -33.756900 -102.385000 -24.328900 0.000322 -0.000009 17.594000 0.379396 -88.804700 -22.291500 -0.000108 -0.000004 22.868900 5.285330 0.479873 -2.192480 -6.469440 -0.000000 -174.866000 -7.506460 -2.843570 39.081100 -0.000007 -0.000012 -0.105090 0.258520 22.122100 40.985400 -0.000006 -0.000013 -0.279287 4.698360 -65.535500 11.754300 -0.000000 0.000003 -0.000045 -0.000519 -16.597700 -2.192510 6.469440 -0.000001 -179.257000 14.124900 179.762000 -39.081100 -0.002282 -0.040193 -0.006416 0.029139 18.483900 -40.985400 0.000008 0.000006 4.876160 7.605720 -65.150200 -11.754300 -0.000006 -0.000006 -0.009296 -0.098298 -20.577300
0.000000 0.000000 0.000000 0.000000 0.000000 -0.000000 -0.982461 92.469400 -1.232540 87.817600 -0.803433 3.891440 15.735700 0.000005 -0.000001 87.771400 86.285200 -88.070700 8.984550 -0.406207 -0.000000 -0.342771 -0.267668 -0.599142 16.377300 -0.000001 -0.000001 3.024210 -2.298140 2.023570 6.456720 -0.000001 -0.000000 4.665930 -2.872320 -3.738170 12.994200 -0.242716 4.980390 -89.569100 -1.287700 -71.497400 5.348090 -0.000007 -0.000001 -70.802400 36.274900 -10.447400 24.328600 0.000019 0.000005 1.802350 4.513350 -21.795100 22.291600 -0.000001 0.000005 5.938440 5.476530 -5.616210 12.994500 -0.242716 -4.980390 90.492700 -1.318430 -69.504800 -5.348130 -0.000001 -0.000004 -78.705800 -33.938700 -102.310000 -24.328900 0.000322 -0.000009 17.357700 0.351894 -88.875400 -22.291500 -0.000108 -0.000004 22.912400 5.284080 0.514149 -2.192480 -6.469440 -0.000000 -174.881000 -7.445100 -2.811970 39.081100 -0.000007 -0.000012 -0.106037 0.260985 22.111700 40.985400 -0.000006 -0.000013 -0.267076 4.705960 -65.558500 11.754300 -0.000000 0.000003 -0.000043 -0.000499 -16.597000 -2.192510 6.469440 -0.000001 -179.299000 14.225800 179.805000 -39.081100 -0.002282 -0.040193 -0.006511 0.029442 18.472600 -40.985400 0.000008 0.000006 4.866100 7.647520 -65.174100 -11.754300 -0.000006 -0.000006 -0.008954 -0.095649 -20.469000
0.000000 0.000000 0.000000 0.000000 0.000000 -0.000000 -0.961796 92.474400 -1.206100 87.825500 -0.733218 3.883310 15.735700 0.000005 -0.000001 87.724700 86.277400 -88.012400 8.984550 -0.406207 -0.000000 -0.327312 -0.275202 -0.575756 16.377300 -0.000001 -0.000001 3.077860 -2.347820 2.066540 6.456720 -0.000001 -0.000000 4.710990 -2.921130 -3.750880 12.994200 -0.242716 4.980390 -89.564400 -1.301350 -71.489400 5.348090 -0.000007 -0.000001 -70.946700 36.237000 -10.329300 24.328600 0.000019 0.000005 1.850710 4.639040 -21.777100 22.291600 -0.000001 0.000005 5.847100 5.476270 -5.606310 12.994500 -0.242716 -4.980390 90.494500 -1.319630 -69.456900 -5.348130 -0.000001 -0.000004 -78.454100 -34.206000 -101.963000 -24.328900 0.000322 -0.000009 17.179400 0.282646 -89.086800 -22.291500 -0.000108 -0.000004 22.877800 5.281250 0.591866 -2.192480 -6.469440 -0.000000 -174.913000 -7.415900 -2.795730 39.081100 -0.000007 -0.000012 -0.105062 0.259136 22.069300 40.985400 -0.000006 -0.000013 -0.239210 4.736830 -65.548700 11.754300 -0.000000 0.000003 -0.000043 -0.000495 -16.596800 -2.192510 6.469440 -0.000001 -179.309000 14.272900 179.832000 -39.081100 -0.002282 -0.040193 -0.003531 0.020551 18.445600 -40.985400 0.000008 0.000006 4.994910 7.602350 -65.203700 -11.754300 -0.000006 -0.000006 -0.009415 -0.099215 -20.614800
